<?xml version="1.0" encoding="UTF-8"?>
<svg xmlns="http://www.w3.org/2000/svg" xmlns:xlink="http://www.w3.org/1999/xlink" viewBox="0 0 24 24" width="24px" height="24px">
<g id="surface61509366">
<path style=" stroke:none;fill-rule:nonzero;fill:rgb(60.784316%,34.901962%,71.372551%);fill-opacity:1;" d="M 11.5 0 C 10.117188 0 9 1.117188 9 2.5 L 9 4 L 3 4 L 3 10 L 4.359375 10 C 5.664062 10 6.855469 10.941406 6.984375 12.242188 C 7.136719 13.738281 5.964844 15 4.5 15 L 3 15 L 3 21 L 9 21 L 9 19.644531 C 9 18.335938 9.941406 17.144531 11.242188 17.015625 C 12.738281 16.863281 14 18.035156 14 19.5 L 14 21 L 20 21 L 20 15 L 21.5 15 C 22.882812 15 24 13.882812 24 12.5 C 24 11.117188 22.882812 10 21.5 10 L 20 10 L 20 4 L 14 4 L 14 2.5 C 14 1.117188 12.882812 0 11.5 0 Z M 11.5 0 "/>
</g>
</svg>
